<svg width="123" height="46" viewBox="0 0 123 46" fill="none" xmlns="http://www.w3.org/2000/svg">
<path d="M1.88235 39.5294H0V5.64706H1.88235V1.88235H5.64706V0H13.1765V3.76471H9.41176V5.64706H7.52941V39.5294H9.41176V41.4118H13.1765V45.1765H5.64706V43.2941H1.88235V39.5294ZM26.3419 30.1176H28.2243V32H33.8713V30.1176H35.7537V16.9412H33.8713V15.0588H28.2243V16.9412H26.3419V30.1176ZM18.8125 15.0588H20.6949V11.2941H24.4596V9.41176H37.636V11.2941H41.4007V15.0588H43.2831V32H41.4007V35.7647H37.636V37.6471H24.4596V35.7647H20.6949V32H18.8125V15.0588ZM48.9375 37.6471H73.4081V45.1765H48.9375V37.6471ZM86.5919 30.1176H88.4743V32H94.1213V30.1176H96.0037V16.9412H94.1213V15.0588H88.4743V16.9412H86.5919V30.1176ZM79.0625 15.0588H80.9449V11.2941H84.7096V9.41176H97.886V11.2941H101.651V15.0588H103.533V32H101.651V35.7647H97.886V37.6471H84.7096V35.7647H80.9449V32H79.0625V15.0588ZM112.952 41.4118V39.5294H114.835V5.64706H112.952V3.76471H109.188V0H116.717V1.88235H120.482V5.64706H122.364V39.5294H120.482V43.2941H116.717V45.1765H109.188V41.4118H112.952Z" fill="#0FCA05"/>
</svg>
